<svg width="700" height="600" fill="white" color="white" xmlns="http://www.w3.org/2000/svg"><rect width="100%" height="100%" fill="#1a2035"></rect><g transform="translate(20,50)"><path class="line" stroke="white" fill="none" d="M97.7883697881854,359.4306607365809C99.79634452716252,358.7533043116409,101.80431926613963,358.0759478867009,103.81229400511674,356.644043878936C105.84164995659222,355.1968927451624,107.8710059080677,350.76118606835234,109.90036185954318,350.76118606835234C111.95295825938645,350.76118606835234,114.00555465922972,352.6189306401156,116.05815105907298,352.6189306401156C118.11167707685097,352.6189306401156,120.16520309462896,345.86686144110905,122.21872911240695,343.33020778129935C124.24901468181714,340.82226228875777,126.27930025122733,338.8923570473485,128.30958582063752,337.4473499707158C130.338941772113,336.00300452735985,132.36829772358848,335.9902107952512,134.39765367506396,334.6607331130709C136.45025007490725,333.31603007951423,138.5028464747505,331.5638148078838,140.55544287459378,329.397123493075C142.60896889237176,327.2294508869099,144.66249491014975,321.65652111072814,146.71602092792773,321.65652111072814C148.72399566690484,321.65652111072814,150.73197040588195,328.77787530248725,152.73994514485906,328.77787530248725C154.76930109633454,328.77787530248725,156.79865704781,318.4477235724229,158.82801299928548,317.63140787190775C160.88060939912876,316.8057436177907,162.93320579897204,317.21857574484926,164.98580219881532,316.3929114907322C167.0393282165933,315.5668732944711,169.0928542343713,307.0197109466568,171.14638025214927,306.1753163460344C173.15435499112638,305.3496520919174,175.1623297301035,305.7624842189759,177.1703044690806,304.9368199648589C179.19966042055609,304.10236391544345,181.22901637203157,292.86148024839775,183.25837232350705,292.86148024839775C185.3109687233503,292.86148024839775,187.36356512319358,293.79035253427935,189.41616152303683,293.79035253427935C191.46968754081482,293.79035253427935,193.52321355859283,279.32289337151485,195.5767395763708,276.1015279701403C197.58471431534792,272.951618840684,199.59268905432504,273.0378351811735,201.60066379330215,271.3766642759558C203.63001974477763,269.69780497684,205.6593756962531,269.5536115048949,207.6887316477286,266.07589976452465C209.74132804757187,262.5583608168666,211.79392444741512,254.06126492648633,213.8465208472584,250.2726859407253C215.9000468650364,246.4823911130323,217.95357288281437,245.38765843976586,220.00709890059235,243.34329868804832C222.03738447000254,241.32207564696589,224.06767003941275,240.86484671695683,226.09795560882293,238.0580153813819C228.1273115602984,235.2524692249899,230.1566675117739,229.50303757091362,232.18602346324937,226.50903662692042C234.23861986309265,223.48074799460846,236.2912162629359,221.9783852943098,238.3438126627792,220.05027799909016C240.39733868055717,218.12129746687089,242.45086469833512,217.30229153630995,244.5043907161131,214.93838418578832C246.51236545509022,212.62691298745116,248.52034019406733,209.11524414128826,250.52831493304444,206.11100122895994C252.55767088451992,203.07476869302812,254.58702683599543,199.43730281693192,256.6163827874709,196.8129896472849C258.66897918731416,194.15862250180592,260.7215755871575,193.34979161875148,262.7741719870007,190.30778740516058C264.8276980047787,187.26440547227006,266.8812240225567,182.44085559974022,268.9347500403347,178.5544567478051C270.9427247793118,174.7542659283484,272.9506995182889,170.98924285736368,274.958674257266,167.24388854671986C276.98803020874146,163.45865314850903,279.017386160217,158.87914399543598,281.0467421116924,155.964282755164C283.0993385115357,153.01604014475603,285.151934911379,151.6936486197903,287.20453131122224,149.71297227118066C289.2580573290002,147.7313988771233,291.3115833467782,146.89940977877347,293.3651093645562,144.07781373683207C295.37215448559857,141.32008360801746,297.379199606641,136.3753792069311,299.3862447276834,133.10163955866426C301.4165302970936,129.7899918551836,303.4468158665038,127.02914291761566,305.477101435914,124.34855399974259C307.52969783575725,121.63850806079404,309.5822942356005,119.02995599900761,311.63489063544375,116.94545426622983C313.68841665322174,114.86000846563826,315.7419426709998,113.01448941741349,317.79546868877776,111.83975293483388C319.8248246402532,110.67884313787995,321.8541805917287,110.61808944789027,323.8835365432042,109.90150609829425C325.91382211261435,109.18459449246845,327.9441076820246,107.53907425120195,329.9743932514348,107.53907425120195C332.02698965127803,107.53907425120195,334.0795860511213,107.5958386686725,336.13218245096454,107.70936750361358C338.1857084687425,107.82294775559947,340.23923448652056,110.68401807182443,342.29276050429854,112.05339356058664C344.2998056253409,113.39177367839451,346.30685074638336,114.55769738945352,348.31389586742574,115.8431924869837C350.3441814368359,117.1435728913403,352.37446700624616,118.57426722755318,354.40475257565635,119.81257338865112C356.4573489754996,121.06448730976112,358.5099453753429,122.47176881519546,360.56254177518616,123.30822942451897C362.61606779296415,124.14506886564018,364.6695938107421,123.81601294080093,366.72311982852005,124.83157997336485C368.73016494956244,125.82415997486125,370.7372100706049,128.813287577102,372.74425519164726,130.21594299052538C374.77454076105744,131.63484036102872,376.8048263304677,132.09121453709136,378.83511189987786,133.26883657012297C380.8877082997211,134.45939950461647,382.9403046995644,137.33110470037855,384.9929010994077,137.33110470037855C387.04642711718566,137.33110470037855,389.09995313496364,136.05545342776782,391.1534791527416,136.05545342776782C393.160524273784,136.05545342776782,395.16756939482644,136.35076849927918,397.1746145158688,136.8264174250496C399.204900085279,137.30757409660245,401.2351856546892,137.9552621996002,403.2654712240994,138.9411499959068C405.3180676239426,139.93787172404097,407.37066402378593,141.63227999151164,409.4232604236292,142.79287374136254C411.47678644140717,143.95399312244072,413.53031245918515,145.11568923818047,415.58383847696314,145.90595421997205C417.61319442843865,146.6869177578856,419.6425503799141,146.87259808673147,421.6719063313896,147.52392991745296C423.7021919007998,148.17556011364888,425.73247747021,149.8151482226276,427.76276303962015,149.8151482226276C429.8153594394634,149.8151482226276,431.8679558393067,148.85531352721665,433.92055223914997,148.85531352721665C435.97407825692795,148.85531352721665,438.02760427470594,151.28348492196636,440.0811302924839,152.26117857544926C442.0881754135263,153.2167424495414,444.09522053456874,154.67624651874144,446.1022656556111,154.67624651874144C448.1325512250213,154.67624651874144,450.1628367944315,152.62638947696976,452.19312236384167,150.74402050850927C454.245718763685,148.84096616676894,456.29831516352823,145.1912579635472,458.35091156337154,143.2820798119268C460.4044375811495,141.37203699628847,462.45796359892745,139.2879289826359,464.51148961670543,139.2879289826359C466.5185347377478,139.2879289826359,468.52557985879025,139.8452523541648,470.53262497983263,139.8452523541648C472.5629105492428,139.8452523541648,474.59319611865305,138.42883613989832,476.62348168806324,137.43018441087264C478.6760780879065,136.4205584870225,480.7286744877498,134.3027567846868,482.78127088759305,133.8075824959343C484.83479690537104,133.31218394346408,486.888322923149,133.1067239524847,488.941848940927,133.06448466722895C490.94889406196944,133.02320145452313,492.9559391830118,133.04384306087604,494.96298430405426,133.00255984817022C496.99326987346444,132.96079859918945,499.0235554428746,127.47980832233051,501.0538410122848,126.43852902794004C503.10643741212806,125.38580710394088,505.1590338119713,125.82402429804104,507.21163021181457,124.8594461419413C509.26515622959255,123.89443112979261,511.31868224737053,121.37961927744999,513.3722082651485,120.64855844594456C515.401564216624,119.9261022235922,517.4309201680994,120.07041155733926,519.4602761195749,119.56487411241602C521.4905616889852,119.05910508826926,523.5208472583954,118.91466351229889,525.5511328278056,117.61424231206462C527.6037292276488,116.29953076897068,529.6563256274922,112.55163031629209,531.7089220273353,110.61673775842308C533.7624480451134,108.68096889051876,535.8159740628913,107.37223687426889,537.8695000806694,106.00333873854436C539.8765452017118,104.66542516904266,541.8835903227541,103.65364426915404,543.8906354437966,102.47362405219411C545.9209210132068,101.27993986792339,547.9512065826169,100.46361085238355,549.9814921520272,98.88198454678519C552.0340885518705,97.2829777323341,554.0866849517137,94.20607201558873,556.139281351557,92.90623950761346C558.1928073693349,91.60581830737915,560.2463333871129,91.71490019783391,562.2998594048909,90.955607707262C564.3069045259333,90.21350155644953,566.3139496469756,89.95303940121215,568.3209947680181,88.41669012585231C570.3512803374283,86.86255079403855,572.3815659068384,82.28927415304375,574.4118514762487,81.6359224389164C576.464447876092,80.9753910356228,578.5170442759352,81.3056567372696,580.5696406757785,80.64512533397601C582.6231666935564,79.98429477696718,584.6766927113345,78.46369864881324,586.7302187291124,76.80578655233194C588.7372638501548,75.18540075952833,590.7443089711971,72.32412529612978,592.7513540922396,70.86100392268958C594.7816396616498,69.38094043052033,596.81192523106,69.46956213948793,598.8422108004702,68.01246224598589C600.8948072003135,66.53935026574207,602.9474036001567,64.28803373627811,605,62.03671720681416"></path><text x="595" y="67.03671720681416" fill="white" font-size="10pt" text-anchor="end">Household Debt</text><path class="line" stroke="white" fill="none" d="M268.9347500403347,485.1081033951273C270.9427247793118,485.07632017212126,272.9506995182889,485.04453694911524,274.958674257266,484.91740405709123C276.98803020874146,484.7889174351984,279.017386160217,484.3687069781823,281.0467421116924,484.1921894968819C283.0993385115357,484.01365051442144,285.151934911379,484.03439641194313,287.20453131122224,483.85674182316825C289.2580573290002,483.67900677488757,291.3115833467782,483.216282070126,293.3651093645562,483.12584163569704C295.37215448559857,483.037448291228,297.379199606641,483.0816449634625,299.3862447276834,482.99325161899344C301.4165302970936,482.9038347295444,303.4468158665038,482.33022572869794,305.477101435914,482.1229066469729C307.52969783575725,481.91330933358057,309.5822942356005,481.96430428151416,311.63489063544375,481.74799149945625C313.68841665322174,481.53158074965285,315.7419426709998,480.9767512558782,317.79546868877776,480.8244877857629C319.8248246402532,480.6740164615159,321.8541805917287,480.74925212363945,323.8835365432042,480.59878079939244C325.91382211261435,480.44824054645824,327.9441076820246,479.801038862264,329.9743932514348,479.5467211613331C332.02698965127803,479.2896087603919,334.0795860511213,479.3114823172481,336.13218245096454,479.0708793955939C338.1857084687425,478.83016750522523,340.23923448652056,478.21010249075385,342.29276050429854,478.1025538786177C344.2998056253409,477.9974395945064,346.30685074638336,478.04999673656204,348.31389586742574,477.9448824524507C350.3441814368359,477.838551004327,352.37446700624616,477.1911417238419,354.40475257565635,476.88586401284965C356.4573489754996,476.5772316017366,358.5099453753429,476.38257188877003,360.56254177518616,476.1063163067741C362.61606779296415,475.8299356090255,364.6695938107421,475.43180116195424,366.72311982852005,475.2279105810567C368.73016494956244,475.02863499746326,370.7372100706049,475.1135669187048,372.74425519164726,474.88487959400106C374.77454076105744,474.65354419930304,376.8048263304677,474.00945734997464,378.83511189987786,473.81184601972654C380.8877082997211,473.6120631363988,382.9403046995644,473.71195457806266,384.9929010994077,473.5121716947349C387.04642711718566,473.3122983300288,389.09995313496364,472.40688882164704,391.1534791527416,472.2314116245518C393.160524273784,472.0599062970151,395.16756939482644,472.14565896078346,397.1746145158688,471.9741536332468C399.204900085279,471.8006623709308,401.2351856546892,471.16629648137956,403.2654712240994,470.88483816629713C405.3180676239426,470.6002869026973,407.37066402378593,470.55979559734647,409.4232604236292,470.28153778398564C411.47678644140717,470.00315394806444,413.53031245918515,469.48064971061956,415.58383847696314,469.2147035033471C417.61319442843865,468.9518874913617,419.6425503799141,468.9301416755412,421.6719063313896,468.6889562163044C423.7021919007998,468.4476602735773,425.73247747021,467.99025340745175,427.76276303962015,467.76707802911136C429.8153594394634,467.5414501740859,431.8679558393067,467.6110841778668,433.92055223914997,467.3481231887764C435.97407825692795,467.0850431050352,438.02760427470594,466.34897983420785,440.0811302924839,466.1886196549128C442.0881754135263,466.0318891763714,444.09522053456874,466.11025441564215,446.1022656556111,465.9535239371007C448.1325512250213,465.79497860818253,450.1628367944315,465.1151633517584,452.19312236384167,464.88302401679795C454.245718763685,464.6483337001347,456.29831516352823,464.7656788584663,458.35091156337154,464.530988541803C460.4044375811495,464.2961919342355,462.45796359892745,463.57852450027764,464.51148961670543,463.400537656049C466.5185347377478,463.2265794864294,468.52557985879025,463.3135585712392,470.53262497983263,463.1396004016196C472.5629105492428,462.96362789469543,474.59319611865305,462.2189373655997,476.62348168806324,462.0278848698718C478.6760780879065,461.8347328961689,480.7286744877498,461.93130888302034,482.78127088759305,461.7381569093174C484.83479690537104,461.5449174573655,486.888322923149,460.76676257279183,488.941848940927,460.62061549059257C490.94889406196944,460.4777764002946,492.9559391830118,460.54919594544356,494.96298430405426,460.4063568551456C496.99326987346444,460.26186376889694,499.0235554428746,459.5577242189599,501.0538410122848,459.3845508970615C503.10643741212806,459.2094745716258,505.1590338119713,459.29701273434364,507.21163021181457,459.1219364089079C509.26515622959255,458.9467807916581,511.31868224737053,458.09777005051546,513.3722082651485,457.9487923855261C515.401564216624,457.8015681923745,517.4309201680994,457.8751802889503,519.4602761195749,457.7279560957987C521.4905616889852,457.58066446142254,523.5208472583954,456.88895670434374,525.5511328278056,456.69680351514995C527.6037292276488,456.5025387524486,529.6563256274922,456.59967113379923,531.7089220273353,456.40540637109785C533.7624480451134,456.211053626167,535.8159740628913,455.416415246619,537.8695000806694,455.31058640698205C539.8765452017118,455.207152968876,541.8835903227541,455.25886968792906,543.8906354437966,455.155436249823C545.9209210132068,455.05080511095156,547.9512065826169,454.34949112418377,549.9814921520272,454.15774505477685C552.0340885518705,453.9638918857061,554.0866849517137,454.0608184702415,556.139281351557,453.86696530117075C558.1928073693349,453.6730243362807,560.2463333871129,452.8924550174117,562.2998594048909,452.799496910385C564.3069045259333,452.7086428800226,566.3139496469756,452.7540698952038,568.3209947680181,452.6632158648414C570.3512803374283,452.57130979614686,572.3815659068384,451.94490612240236,574.4118514762487,451.73848232424155C576.464447876092,451.52979013269436,578.5170442759352,451.63386096168995,580.5696406757785,451.42461823658675C582.6231666935564,451.2152807457566,584.6766927113345,450.5955040404692,586.7302187291124,450.46823770758283C588.7372638501548,450.3438520069483,590.7443089711971,450.40604485726556,592.7513540922396,450.281659156631C594.7816396616498,450.15583313987054,596.81192523106,449.46603994504784,598.8422108004702,449.3297170890331C600.8948072003135,449.1918961796556,602.9474036001567,449.1574409523112,605,449.12298572496684"></path><text x="595" y="444.12298572496684" fill="white" font-size="10pt" text-anchor="end">Student Loan Debt</text><path class="line" stroke="tan" fill="none" d="M244.5043907161131,407.90955275842805C246.51236545509022,403.77160991246376,248.52034019406733,399.6336670664994,250.52831493304444,396.4130238826349C252.55767088451992,393.1580868130162,254.58702683599543,390.94632932129963,256.6163827874709,388.52209018125495C258.66897918731416,386.0700883391942,260.7215755871575,383.8927780493289,262.7741719870007,381.7985418027385C264.8276980047787,379.70335707958714,266.8812240225567,378.8428538991906,268.9347500403347,375.95422667372026C270.9427247793118,373.1296749276741,272.9506995182889,368.57314222613945,274.958674257266,364.7827924448004C276.98803020874146,360.95208245745636,279.017386160217,355.9829597108862,281.0467421116924,353.08677367206224C283.0993385115357,350.1574201339389,285.151934911379,347.6905523930132,287.20453131122224,347.3754518076739C289.2580573290002,347.0602085137362,291.3115833467782,347.2178301607051,293.3651093645562,346.90258686676736C295.37215448559857,346.5944790027513,297.379199606641,341.94560844804596,299.3862447276834,339.9426060177974C301.4165302970936,337.916409951256,303.4468158665038,336.27174153423283,305.477101435914,334.8371423589459C307.52969783575725,333.386778357557,309.5822942356005,333.18014316318,311.63489063544375,331.30543233154924C313.68841665322174,329.4298724460998,315.7419426709998,323.5844344683077,317.79546868877776,323.5844344683077C319.8248246402532,323.5844344683077,321.8541805917287,334.6007098884925,323.8835365432042,334.6007098884925C325.91382211261435,334.6007098884925,327.9441076820246,328.86722247999927,329.9743932514348,328.86722247999927C332.02698965127803,328.86722247999927,334.0795860511213,330.44097611145423,336.13218245096454,330.44097611145423C338.1857084687425,330.44097611145423,340.23923448652056,327.9893851454833,342.29276050429854,327.2860803338426C344.2998056253409,326.59869459897067,346.30685074638336,326.2221342168026,348.31389586742574,326.2221342168026C350.3441814368359,326.2221342168026,352.37446700624616,327.28361749560867,354.40475257565635,329.40658405322085C356.4573489754996,331.5528799136639,358.5099453753429,336.3686766348569,360.56254177518616,340.02387967951574C362.61606779296415,343.68073816033603,364.6695938107421,347.2773257646354,366.72311982852005,351.34308420246896C368.73016494956244,355.3168155140501,370.7372100706049,360.30601372182224,372.74425519164726,364.10304909224703C374.77454076105744,367.94405198664623,376.8048263304677,371.4569815135214,378.83511189987786,374.2253142335302C380.8877082997211,377.0240681922204,382.9403046995644,379.0403468527408,384.9929010994077,380.7641497445051C387.04642711718566,382.4887333441008,389.09995313496364,382.0325114349579,391.1534791527416,384.56923481586335C393.160524273784,387.0485402841182,395.16756939482644,393.0444218706088,397.1746145158688,396.0583751769548C399.204900085279,399.10722835947433,401.2351856546892,400.2683638147311,403.2654712240994,402.7006498937531C405.3180676239426,405.1596643912259,407.37066402378593,407.5607794700125,409.4232604236292,410.746742403868C411.47678644140717,413.93414825571887,413.53031245918515,418.8214362553299,415.58383847696314,421.8221259416662C417.61319442843865,424.7874974153068,419.6425503799141,427.2656524890072,421.6719063313896,428.69344461421605C423.7021919007998,430.1218907898716,425.73247747021,430.16330395017405,427.76276303962015,430.83611387769935C429.8153594394634,431.51631732091175,431.8679558393067,431.4739889802766,433.92055223914997,432.74973918543105C435.97407825692795,434.0260671760045,438.02760427470594,441.08073154482344,440.0811302924839,442.42130492991254C442.0881754135263,443.7315348703414,444.09522053456874,443.3515926864948,446.1022656556111,444.38664984055583C448.1325512250213,445.43369237157447,450.1628367944315,447.1703811508884,452.19312236384167,448.69415391162744C454.245718763685,450.23467142797904,456.29831516352823,452.37248832119707,458.35091156337154,453.58535064413064C460.4044375811495,454.7987622706525,462.45796359892745,454.56807821493624,464.51148961670543,455.97184089276897C466.5185347377478,457.3438298567531,468.52557985879025,460.0003651019114,470.53262497983263,461.83093305119047C472.5629105492428,463.6826979429114,474.59319611865305,466.1966350605281,476.62348168806324,467.01028185705877C478.6760780879065,467.8328698271777,480.7286744877498,467.4215758421182,482.78127088759305,468.24416381223716C484.83479690537104,469.06712433125557,486.888322923149,472.3662830343243,488.941848940927,473.563894397437C490.94889406196944,474.73439821498357,492.9559391830118,474.89704964470303,494.96298430405426,475.42580010225697C496.99326987346444,475.96067319132493,499.0235554428746,476.74834423385533,501.0538410122848,476.74834423385533C503.10643741212806,476.74834423385533,505.1590338119713,475.802614352042,507.21163021181457,475.802614352042C509.26515622959255,475.802614352042,511.31868224737053,477.6615826756108,513.3722082651485,478.2260471741887C515.401564216624,478.78386790773123,517.4309201680994,479.1865540854053,519.4602761195749,479.1865540854053C521.4905616889852,479.1865540854053,523.5208472583954,476.94044561609866,525.5511328278056,476.94044561609866C527.6037292276488,476.94044561609866,529.6563256274922,477.65873780319004,531.7089220273353,478.57330736516695C533.7624480451134,479.488291134373,535.8159740628913,482.43011203943695,537.8695000806694,482.43011203943695C539.8765452017118,482.43011203943695,541.8835903227541,481.0189057314186,543.8906354437966,481.0189057314186C545.9209210132068,481.0189057314186,547.9512065826169,482.7760562591185,549.9814921520272,483.36845340654855C552.0340885518705,483.9673604127416,554.0866849517137,483.7723588769063,556.139281351557,484.5801698176219C558.1928073693349,485.38834661474175,560.2463333871129,488.4263778778209,562.2998594048909,490.1584984173801C564.3069045259333,491.851412969172,566.3139496469756,494.8577629186176,568.3209947680181,494.87237079704335C570.3512803374283,494.8871478264467,572.3815659068384,494.8945363411484,574.4118514762487,494.8945363411484C576.464447876092,494.8945363411484,578.5170442759352,494.4438369443467,580.5696406757785,494.4438369443467C582.6231666935564,494.4438369443467,584.6766927113345,499.4655846364041,586.7302187291124,499.6822938678283C588.7372638501548,499.89409795594275,590.7443089711971,500,592.7513540922396,500C594.7816396616498,500,596.81192523106,499.61579723551336,598.8422108004702,499.23159447102665"></path><text x="598.8422108004702" y="479.23159447102665" fill="tan" font-size="10pt" text-anchor="end">Debt to GDP</text><path class="line" stroke="tan" fill="none" d="M0,364.4599882374846C8.143453108073848,359.2502322842101,16.286906216147692,354.0404763309355,24.43035932422154,350.3012297443869C32.59612326272847,346.5517386466422,40.76188720123539,344.85558460901126,48.927651139742316,342.00991243132376C57.071104247816166,339.17201531423103,65.21455735589001,339.09056250240127,73.35801046396386,333.25186264455624C81.50146357203771,327.4131627867112,89.64491668011156,309.37262643965215,97.7883697881854,302.6786321199422C105.93182289625925,295.9846378002323,114.0752760043331,298.76516841359114,122.21872911240695,292.63764064037736C130.38449305091387,286.4933251198397,138.5502569894208,276.5588880597796,146.71602092792773,265.8173322733278C154.8594740360016,255.10512499995374,163.00292714407541,244.5476455759052,171.14638025214927,228.3058431329667C179.28983336022313,212.06404069002818,187.43328646829696,186.6758727559849,195.5767395763708,168.3665176156967C203.72019268444467,150.0571624754085,211.8636457925185,136.54532341161539,220.00709890059235,118.44971229123746C228.17286283909928,100.30452415409138,236.33862677760618,75.64167189657462,244.5043907161131,59.62014168215785C252.64784382418696,43.64238614045803,260.7912969322608,32.329800638170646,268.9347500403347,22.393110357810997C277.07820314840853,12.456420077451373,285.22165625648233,0,293.3651093645562,0C301.50856247263005,0,309.6520155807039,45.052823627346996,317.79546868877776,49.952270195027154C325.9612326272847,54.86513990398862,334.1269965657916,52.40870504950789,342.29276050429854,57.32157475846935C350.4362136123724,62.2210213261495,358.5796667204462,93.81209430897192,366.72311982852005,112.09558964780427C374.8665729365939,130.37908498663666,383.01002604466777,150.28054190322226,391.1534791527416,167.02254679146358C399.2969322608155,183.76455167970485,407.4403853688893,212.5476189772521,415.58383847696314,212.5476189772521C423.74960241547006,212.5476189772521,431.915366353977,204.64855790970057,440.0811302924839,204.64855790970057C448.2245834005578,204.64855790970057,456.3680365086316,225.40240313903507,464.51148961670543,233.9321970782857C472.6549427247793,242.46199101753635,480.79839583285315,255.82732154520434,488.941848940927,255.82732154520434C497.08530204900086,255.82732154520434,505.22875515707466,254.40207705925283,513.3722082651485,254.40207705925283C521.5379722036555,254.40207705925283,529.7037361421624,256.42874664192,537.8695000806694,258.45541622458717"></path><text x="527.8695000806694" y="263.45541622458717" fill="tan" font-size="10pt" text-anchor="end">Debt to Income</text><g fill="none" font-size="10" font-family="sans-serif" text-anchor="end"><path class="domain" stroke="currentColor" d="M-6,500.5H0.5V0.5H-6"></path><g class="tick" opacity="1" transform="translate(0,500.5)"><line stroke="currentColor" x2="-6"></line><text fill="currentColor" x="-9" dy="0.32em">0</text></g><g class="tick" opacity="1" transform="translate(0,438.575180941225)"><line stroke="currentColor" x2="-6"></line><text fill="currentColor" x="-9" dy="0.32em">2</text></g><g class="tick" opacity="1" transform="translate(0,376.65036188245006)"><line stroke="currentColor" x2="-6"></line><text fill="currentColor" x="-9" dy="0.32em">4</text></g><g class="tick" opacity="1" transform="translate(0,314.72554282367514)"><line stroke="currentColor" x2="-6"></line><text fill="currentColor" x="-9" dy="0.32em">6</text></g><g class="tick" opacity="1" transform="translate(0,252.80072376490017)"><line stroke="currentColor" x2="-6"></line><text fill="currentColor" x="-9" dy="0.32em">8</text></g><g class="tick" opacity="1" transform="translate(0,190.8759047061252)"><line stroke="currentColor" x2="-6"></line><text fill="currentColor" x="-9" dy="0.32em">10</text></g><g class="tick" opacity="1" transform="translate(0,128.95108564735023)"><line stroke="currentColor" x2="-6"></line><text fill="currentColor" x="-9" dy="0.32em">12</text></g><g class="tick" opacity="1" transform="translate(0,67.02626658857531)"><line stroke="currentColor" x2="-6"></line><text fill="currentColor" x="-9" dy="0.32em">14</text></g><g class="tick" opacity="1" transform="translate(0,5.101447529800339)"><line stroke="currentColor" x2="-6"></line><text fill="currentColor" x="-9" dy="0.32em">16</text></g></g><g transform="translate(0,500)" fill="none" font-size="10" font-family="sans-serif" text-anchor="middle"><path class="domain" stroke="currentColor" d="M0.5,6V0.5H605.5V6"></path><g class="tick" opacity="1" transform="translate(24.93035932422154,0)"><line stroke="currentColor" y2="6"></line><text fill="currentColor" y="9" dy="0.71em">1996</text></g><g class="tick" opacity="1" transform="translate(73.85801046396386,0)"><line stroke="currentColor" y2="6"></line><text fill="currentColor" y="9" dy="0.71em">1998</text></g><g class="tick" opacity="1" transform="translate(122.71872911240695,0)"><line stroke="currentColor" y2="6"></line><text fill="currentColor" y="9" dy="0.71em">2000</text></g><g class="tick" opacity="1" transform="translate(171.64638025214927,0)"><line stroke="currentColor" y2="6"></line><text fill="currentColor" y="9" dy="0.71em">2002</text></g><g class="tick" opacity="1" transform="translate(220.50709890059235,0)"><line stroke="currentColor" y2="6"></line><text fill="currentColor" y="9" dy="0.71em">2004</text></g><g class="tick" opacity="1" transform="translate(269.4347500403347,0)"><line stroke="currentColor" y2="6"></line><text fill="currentColor" y="9" dy="0.71em">2006</text></g><g class="tick" opacity="1" transform="translate(318.29546868877776,0)"><line stroke="currentColor" y2="6"></line><text fill="currentColor" y="9" dy="0.71em">2008</text></g><g class="tick" opacity="1" transform="translate(367.22311982852005,0)"><line stroke="currentColor" y2="6"></line><text fill="currentColor" y="9" dy="0.71em">2010</text></g><g class="tick" opacity="1" transform="translate(416.08383847696314,0)"><line stroke="currentColor" y2="6"></line><text fill="currentColor" y="9" dy="0.71em">2012</text></g><g class="tick" opacity="1" transform="translate(465.01148961670543,0)"><line stroke="currentColor" y2="6"></line><text fill="currentColor" y="9" dy="0.71em">2014</text></g><g class="tick" opacity="1" transform="translate(513.8722082651485,0)"><line stroke="currentColor" y2="6"></line><text fill="currentColor" y="9" dy="0.71em">2016</text></g><g class="tick" opacity="1" transform="translate(562.7998594048909,0)"><line stroke="currentColor" y2="6"></line><text fill="currentColor" y="9" dy="0.71em">2018</text></g></g><g transform="translate(605,0)" fill="none" font-size="10" font-family="sans-serif" text-anchor="start"><path class="domain" stroke="currentColor" d="M6,500.5H0.5V0.5H6"></path><g class="tick" opacity="1" transform="translate(0,470.65040060526707)"><line stroke="currentColor" x2="6"></line><text fill="tan" x="9" dy="0.32em">0.8</text></g><g class="tick" opacity="1" transform="translate(0,396.7652535886015)"><line stroke="currentColor" x2="6"></line><text fill="tan" x="9" dy="0.32em">0.9</text></g><g class="tick" opacity="1" transform="translate(0,322.88010657193604)"><line stroke="currentColor" x2="6"></line><text fill="tan" x="9" dy="0.32em">1.0</text></g><g class="tick" opacity="1" transform="translate(0,248.99495955527047)"><line stroke="currentColor" x2="6"></line><text fill="tan" x="9" dy="0.32em">1.1</text></g><g class="tick" opacity="1" transform="translate(0,175.109812538605)"><line stroke="currentColor" x2="6"></line><text fill="tan" x="9" dy="0.32em">1.2</text></g><g class="tick" opacity="1" transform="translate(0,101.22466552193941)"><line stroke="currentColor" x2="6"></line><text fill="tan" x="9" dy="0.32em">1.3</text></g><g class="tick" opacity="1" transform="translate(0,27.339518505273986)"><line stroke="currentColor" x2="6"></line><text fill="tan" x="9" dy="0.32em">1.4</text></g></g><text x="5">$(Trillions)</text></g><g class="info" style="display: none;"><circle class="pointer" fill="rgba(255,0,0,0.6)" stroke="none" r="4" cx="0" cy="0"></circle><rect x="4" y="0" width="200" height="75" fill="rgba(0,0,0,0.5)" class="r"></rect><text class="t1"></text><text class="t2"></text><text class="t3"></text></g></svg>